<?xml version="1.0" encoding="utf-8"?>
<!-- Generator: Adobe Illustrator 26.0.3, SVG Export Plug-In . SVG Version: 6.00 Build 0)  -->
<svg version="1.1" id="Calque_1" xmlns="http://www.w3.org/2000/svg" xmlns:xlink="http://www.w3.org/1999/xlink" x="0px" y="0px"
	 viewBox="0 0 512 512" style="enable-background:new 0 0 512 512;" xml:space="preserve">
<style type="text/css">
	.st0{fill:#790CFF;}
	.st1{fill:#FFFFFF;}
</style>
<rect x="0" class="st0" width="512" height="512"/>
<g>
	<g>
		<g>
			<path class="st1" d="M130.7,164.5H84.6c-1.2,0-2,1-2,2v279.4c0,1.2,1,2,2,2h46.1c1.2,0,2-1,2-2V166.5
				C132.7,165.3,131.9,164.5,130.7,164.5z"/>
			<path class="st1" d="M85.4,115.4h45.7c1.6,0,2.8-1.2,2.8-2.8V66.9c0-1.6-1.2-2.8-2.8-2.8H85.4c-1.6,0-2.8,1.2-2.8,2.8v45.7
				C82.4,114.2,83.8,115.4,85.4,115.4z"/>
		</g>
		<g>
			<path class="st1" d="M85.4,115.4h45.7c1.6,0,2.8-1.2,2.8-2.8V66.9c0-1.6-1.2-2.8-2.8-2.8H85.4c-1.6,0-2.8,1.2-2.8,2.8v45.7
				C82.4,114.2,83.8,115.4,85.4,115.4z"/>
		</g>
	</g>
	<g>
		<g>
			<path class="st1" d="M130.7,164.5H84.6c-1.2,0-2,1-2,2v279.4c0,1.2,1,2,2,2h46.1c1.2,0,2-1,2-2V166.5
				C132.7,165.3,131.9,164.5,130.7,164.5z"/>
			<path class="st1" d="M85.4,115.4h45.7c1.6,0,2.8-1.2,2.8-2.8V66.9c0-1.6-1.2-2.8-2.8-2.8H85.4c-1.6,0-2.8,1.2-2.8,2.8v45.7
				C82.4,114.2,83.8,115.4,85.4,115.4z"/>
		</g>
	</g>
</g>
<g>
	<g>
		<g>
			<path class="st1" d="M304,156.7c-55.3,0-117.2,47.7-117.2,131.7v159.5h53.3V300.4c0-47.3,18-89.6,68.1-89.6H308
				c50.3,0,68.1,42.5,68.1,89.6v147.5h53.3V288.4c0-84-62.1-131.5-117.2-131.5L304,156.7z"/>
		</g>
		<g>
			<path class="st1" d="M304,156.7c-55.3,0-117.2,47.7-117.2,131.7v159.5h53.3V300.4c0-47.3,18-89.6,68.1-89.6H308
				c50.3,0,68.1,42.5,68.1,89.6v147.5h53.3V288.4c0-84-62.1-131.5-117.2-131.5L304,156.7z"/>
		</g>
	</g>
	<g>
		<g>
			<path class="st1" d="M304,156.7c-55.3,0-117.2,47.7-117.2,131.7v159.5h53.3V300.4c0-47.3,18-89.6,68.1-89.6H308
				c50.3,0,68.1,42.5,68.1,89.6v147.5h53.3V288.4c0-84-62.1-131.5-117.2-131.5L304,156.7z"/>
		</g>
	</g>
</g>
</svg>
