<?xml version="1.0" encoding="utf-8"?>
<!-- Generator: Adobe Illustrator 26.0.3, SVG Export Plug-In . SVG Version: 6.00 Build 0)  -->
<svg version="1.1" id="Calque_1" xmlns="http://www.w3.org/2000/svg" xmlns:xlink="http://www.w3.org/1999/xlink" x="0px" y="0px"
	 viewBox="0 0 1342.3 652.7" style="enable-background:new 0 0 1342.3 652.7;" xml:space="preserve">
<style type="text/css">
	.st0{fill:#790CFF;}
</style>
<path class="st0" d="M796.5,60.4l0.2-12c0-2.2-1.7-3.7-3.7-3.7h-46.2c-2,0-3.7,1.7-3.7,3.7v12c0,1.1-0.2,88.6-0.2,127.4
	c-19.4-26.8-64-44.4-100.6-44.4c-52,0-86.2,22.2-106.5,42c-31.8,30.9-48.6,72.7-48.6,118.5c0,43.1,15.2,84.5,44.4,115.4
	c33.5,35.5,73,49.2,110.4,49.2c55.3,0,95.4-28.3,113.9-48.8c27.2-30.3,40.7-67.7,40.7-128.3L796.5,60.4z M643,413.6
	c-55.5,0-100.8-49.4-100.8-110.2c0-60.8,44.2-105.4,99.7-105.4s100.4,44.9,100.4,105.6C742,364.2,698.5,413.6,643,413.6z"/>
<path class="st0" d="M940.9,593.3v12.2c0,2.2,1.7,3.7,3.7,3.7h46.2c2,0,3.7-1.7,3.7-3.7v-12c0-1.1,0.2-129.6,0.2-168.1
	c19.4,26.8,64,44.4,100.6,44.4c52,0,86.2-22.2,106.5-42c31.8-30.9,48.6-72.7,48.6-118.5c0-43.1-15-84.5-44.4-115.4
	c-33.5-35.5-73-49.2-110.4-49.2c-55.3,0-95.4,28.3-113.9,48.8c-27.2,30.3-40.7,67.7-40.7,128.3L940.9,593.3z M1094.6,199.6
	c55.5,0,100.8,49.4,100.8,110.2c0,60.8-44.2,105.4-99.7,105.4c-55.5,0-100.4-44.9-100.4-105.6
	C995.3,248.8,1039.1,199.6,1094.6,199.6z"/>
<g>
	<g>
		<g>
			<path class="st0" d="M144.5,153.4H94.4c-1.3,0-2.2,1.1-2.2,2.2v303.6c0,1.3,1.1,2.2,2.2,2.2h50.1c1.3,0,2.2-1.1,2.2-2.2V155.6
				C146.7,154.3,145.8,153.4,144.5,153.4z"/>
			<path class="st0" d="M95.3,100.1h49.7c1.7,0,3-1.3,3-3V47.4c0-1.7-1.3-3-3-3H95.3c-1.7,0-3,1.3-3,3V97
				C92,98.7,93.5,100.1,95.3,100.1z"/>
		</g>
		<g>
			<path class="st0" d="M95.3,100.1h49.7c1.7,0,3-1.3,3-3V47.4c0-1.7-1.3-3-3-3H95.3c-1.7,0-3,1.3-3,3V97
				C92,98.7,93.5,100.1,95.3,100.1z"/>
		</g>
	</g>
	<g>
		<g>
			<path class="st0" d="M144.5,153.4H94.4c-1.3,0-2.2,1.1-2.2,2.2v303.6c0,1.3,1.1,2.2,2.2,2.2h50.1c1.3,0,2.2-1.1,2.2-2.2V155.6
				C146.7,154.3,145.8,153.4,144.5,153.4z"/>
			<path class="st0" d="M95.3,100.1h49.7c1.7,0,3-1.3,3-3V47.4c0-1.7-1.3-3-3-3H95.3c-1.7,0-3,1.3-3,3V97
				C92,98.7,93.5,100.1,95.3,100.1z"/>
		</g>
	</g>
</g>
<g>
	<g>
		<g>
			<path class="st0" d="M893.8,153.4h-50.1c-1.3,0-2.2,1.1-2.2,2.2v303.6c0,1.3,1.1,2.2,2.2,2.2h50.1c1.3,0,2.2-1.1,2.2-2.2V155.6
				C896.2,154.3,895.1,153.4,893.8,153.4z"/>
			<path class="st0" d="M844.6,100.1h49.7c1.7,0,3-1.3,3-3V47.4c0-1.7-1.3-3-3-3h-49.7c-1.7,0-3,1.3-3,3V97
				C841.6,98.7,842.9,100.1,844.6,100.1z"/>
		</g>
		<g>
			<path class="st0" d="M844.6,100.1h49.7c1.7,0,3-1.3,3-3V47.4c0-1.7-1.3-3-3-3h-49.7c-1.7,0-3,1.3-3,3V97
				C841.6,98.7,842.9,100.1,844.6,100.1z"/>
		</g>
	</g>
	<g>
		<g>
			<path class="st0" d="M893.8,153.4h-50.1c-1.3,0-2.2,1.1-2.2,2.2v303.6c0,1.3,1.1,2.2,2.2,2.2h50.1c1.3,0,2.2-1.1,2.2-2.2V155.6
				C896.2,154.3,895.1,153.4,893.8,153.4z"/>
			<path class="st0" d="M844.6,100.1h49.7c1.7,0,3-1.3,3-3V47.4c0-1.7-1.3-3-3-3h-49.7c-1.7,0-3,1.3-3,3V97
				C841.6,98.7,842.9,100.1,844.6,100.1z"/>
		</g>
	</g>
</g>
<g>
	<g>
		<g>
			<path class="st0" d="M318.7,144.9c-60.1,0-127.4,51.8-127.4,143.1v173.3h57.9V301.1c0-51.4,19.6-97.3,74-97.3h-0.2
				c54.7,0,74,46.2,74,97.3v160.3H455V288c0-91.2-67.5-142.9-127.4-142.9L318.7,144.9z"/>
		</g>
		<g>
			<path class="st0" d="M318.7,144.9c-60.1,0-127.4,51.8-127.4,143.1v173.3h57.9V301.1c0-51.4,19.6-97.3,74-97.3h-0.2
				c54.7,0,74,46.2,74,97.3v160.3H455V288c0-91.2-67.5-142.9-127.4-142.9L318.7,144.9z"/>
		</g>
	</g>
	<g>
		<g>
			<path class="st0" d="M318.7,144.9c-60.1,0-127.4,51.8-127.4,143.1v173.3h57.9V301.1c0-51.4,19.6-97.3,74-97.3h-0.2
				c54.7,0,74,46.2,74,97.3v160.3H455V288c0-91.2-67.5-142.9-127.4-142.9L318.7,144.9z"/>
		</g>
	</g>
</g>
</svg>
